<?xml version="1.0" standalone="no"?>
<!DOCTYPE svg PUBLIC "-//W3C//DTD SVG 20010904//EN"
 "http://www.w3.org/TR/2001/REC-SVG-20010904/DTD/svg10.dtd">
<svg version="1.0" xmlns="http://www.w3.org/2000/svg"
 width="600.000000pt" height="400.000000pt" viewBox="0 0 600.000000 400.000000"
 preserveAspectRatio="xMidYMid meet">
<metadata>
Created by potrace 1.16, written by Peter Selinger 2001-2019
</metadata>
<g transform="translate(0.000000,400.000000) scale(0.100000,-0.100000)"
fill="#000000" stroke="none">
<path d="M4380 3350 c-26 -26 -25 -55 0 -80 14 -14 18 -28 14 -45 -11 -45 5
-93 46 -137 31 -31 37 -44 29 -54 -9 -11 -19 -8 -54 16 -24 17 -54 30 -68 30
-32 0 -57 -30 -57 -68 0 -26 8 -38 48 -67 26 -19 53 -35 60 -35 13 0 15 -13 6
-47 -6 -21 -7 -21 -30 -6 -33 21 -69 10 -86 -27 -9 -21 -20 -30 -35 -30 -37 0
-28 -36 25 -92 42 -45 44 -49 17 -35 -36 18 -64 48 -95 102 -35 60 -61 85 -88
85 -22 0 -24 -3 -18 -31 13 -68 94 -218 148 -275 50 -53 138 -114 166 -114 25
0 9 16 -39 39 -80 37 -152 116 -203 224 -82 170 -69 196 26 52 57 -86 100
-116 186 -130 54 -9 55 8 2 29 -40 16 -130 96 -130 116 0 19 36 10 60 -15 22
-24 79 -47 150 -60 55 -11 97 -42 119 -89 17 -35 21 -61 21 -154 0 -68 4 -112
10 -112 6 0 10 35 10 85 0 166 37 241 130 264 105 26 148 42 170 66 24 25 60
34 60 15 0 -20 -90 -100 -130 -116 -53 -21 -52 -38 3 -29 85 14 128 44 185
130 59 90 90 116 78 69 -4 -16 -28 -71 -52 -121 -51 -108 -123 -187 -203 -224
-48 -23 -64 -39 -38 -39 27 0 115 61 165 114 54 57 135 207 148 275 6 28 4 31
-19 31 -27 0 -41 -15 -105 -109 -20 -30 -53 -64 -72 -75 -35 -20 -34 -19 13
32 57 62 63 95 15 90 -28 -3 -35 2 -48 27 -8 16 -27 34 -42 39 -23 8 -32 6
-53 -14 l-25 -23 0 39 c1 35 5 42 45 66 62 37 81 69 65 108 -8 19 -22 33 -38
37 -25 6 -39 0 -99 -37 -18 -12 -25 -12 -35 -2 -9 9 -4 21 27 52 37 38 40 45
42 101 1 39 7 67 17 78 50 55 -29 136 -84 86 -14 -12 -21 -12 -55 0 -51 18
-112 19 -162 1 -33 -12 -42 -12 -58 0 -27 20 -62 17 -85 -6z m76 -11 c3 -6 1
-16 -5 -22 -25 -25 -7 -24 45 4 84 44 186 36 246 -18 17 -15 18 -15 18 0 0 10
-4 17 -10 17 -5 0 -10 4 -10 9 0 14 37 23 60 16 26 -8 28 -60 2 -74 -16 -8
-18 -19 -15 -63 5 -66 -18 -108 -77 -138 -144 -74 -314 12 -296 149 5 39 3 48
-14 59 -22 14 -26 42 -8 60 15 15 55 16 64 1z m-43 -311 l49 -32 17 23 c16 20
19 21 69 10 41 -10 63 -10 105 0 49 11 53 11 70 -10 l17 -22 51 32 c59 36 84
39 99 11 17 -32 5 -53 -57 -93 -56 -37 -57 -38 -54 -82 1 -27 -2 -45 -8 -45
-6 0 -11 -4 -11 -10 0 -21 48 -10 64 15 9 14 25 25 36 25 21 0 50 -35 50 -62
0 -25 -53 -55 -120 -69 -30 -6 -67 -17 -81 -25 -34 -17 -89 -80 -89 -102 -1
-10 -9 -2 -20 19 -26 49 -72 86 -123 99 -97 24 -118 32 -147 56 -32 27 -38 52
-18 72 19 19 45 14 66 -13 19 -24 62 -35 62 -15 0 6 -5 10 -11 10 -7 0 -9 16
-4 49 6 43 4 50 -13 55 -11 4 -38 20 -61 36 -42 31 -53 64 -29 88 19 19 37 15
91 -20z"/>
<path d="M2784 3303 c-14 -32 -16 -68 -10 -243 3 -113 9 -221 12 -240 4 -25 3
-32 -4 -25 -6 6 -25 87 -42 180 -37 199 -57 255 -93 255 -14 0 -28 -7 -31 -16
-12 -31 -5 -171 14 -299 11 -71 20 -150 19 -175 l0 -45 -24 40 c-14 22 -39 74
-56 115 -35 85 -68 126 -94 116 -66 -25 104 -521 224 -657 49 -56 114 -89 176
-89 61 0 150 35 197 78 52 47 81 107 119 244 42 157 56 183 143 277 43 45 75
87 73 94 -2 7 -23 12 -49 11 -56 0 -143 -43 -191 -93 -33 -34 -35 -41 -40
-124 -5 -70 -13 -103 -38 -157 -17 -38 -41 -77 -52 -87 -17 -15 -16 -10 6 28
25 42 35 79 22 79 -3 0 -35 -31 -71 -70 -72 -76 -106 -95 -52 -29 102 125 103
152 3 64 -41 -36 -80 -65 -87 -65 -7 0 20 33 61 74 40 40 69 76 63 80 -5 3
-15 -1 -22 -9 -14 -17 -115 -85 -126 -85 -4 0 23 27 60 61 36 33 66 69 66 80
0 17 -6 18 -67 12 -81 -7 -80 -1 4 21 35 8 81 27 103 42 l40 27 0 81 c0 44 7
126 15 181 27 187 17 257 -33 241 -38 -13 -59 -87 -87 -312 -9 -71 -17 -130
-19 -132 -9 -9 -17 66 -25 250 -10 218 -19 251 -64 256 -24 3 -30 -2 -43 -35z
m66 2 c8 -10 15 -84 22 -216 10 -227 17 -273 40 -277 20 -4 25 11 38 128 24
213 53 320 85 320 19 0 20 -101 4 -200 -6 -36 -14 -114 -17 -175 l-7 -109 -40
-23 c-22 -12 -66 -28 -98 -34 -64 -13 -75 -22 -56 -46 10 -12 26 -14 69 -10
l55 5 -74 -69 c-58 -54 -72 -72 -63 -81 10 -10 20 -10 45 0 l32 11 -27 -20
c-32 -24 -38 -59 -10 -59 11 0 39 14 63 32 l44 31 -38 -42 c-68 -75 -14 -87
63 -13 50 48 63 55 35 18 -21 -27 -19 -58 2 -54 24 5 81 88 105 155 11 32 23
95 26 141 5 77 7 84 36 109 45 38 150 85 183 81 26 -3 25 -5 -51 -86 -88 -95
-103 -122 -146 -280 -46 -170 -76 -220 -158 -265 -56 -30 -130 -43 -186 -33
-23 4 -55 25 -91 58 -46 41 -67 72 -110 162 -92 190 -172 454 -145 479 16 16
30 -6 86 -129 47 -106 68 -135 90 -127 19 7 18 51 -6 218 -21 149 -26 300 -10
310 19 12 42 -47 65 -167 39 -199 56 -266 70 -278 25 -20 34 18 25 100 -13
106 -12 407 0 431 13 23 33 25 50 4z"/>
<path d="M1123 3265 c-29 -8 -71 -24 -93 -35 -81 -41 -159 -131 -146 -167 3
-8 -1 -27 -9 -43 -16 -31 -20 -96 -7 -104 5 -3 7 -18 5 -33 -3 -20 2 -34 15
-47 27 -24 55 -9 83 45 23 45 92 124 122 141 17 9 19 8 15 -10 -11 -42 14 -56
106 -62 78 -6 96 -11 177 -53 49 -26 103 -47 119 -47 34 0 80 19 80 33 0 5 -8
6 -17 1 -53 -22 -87 -16 -186 35 -91 48 -102 51 -171 51 -76 0 -102 12 -91 42
18 45 137 56 219 19 25 -11 46 -15 46 -10 0 6 -21 20 -47 31 -59 26 -171 29
-224 6 -51 -22 -115 -82 -146 -137 -36 -63 -52 -81 -69 -74 -62 24 85 227 204
282 29 14 52 28 52 33 0 12 -6 10 -63 -18 -76 -38 -130 -86 -177 -157 l-42
-62 5 42 c7 61 58 118 176 200 2 2 2 6 -1 9 -10 9 -48 -15 -100 -64 -54 -51
-74 -50 -37 2 35 49 92 92 157 118 48 18 77 22 182 22 114 1 130 -1 180 -25
30 -14 81 -49 113 -78 31 -29 57 -47 57 -40 0 23 -91 98 -159 132 -60 29 -75
32 -171 34 -68 2 -124 -3 -157 -12z"/>
<path d="M1587 2729 c-9 -5 -36 -40 -61 -78 -37 -58 -99 -121 -119 -121 -3 0
-3 9 0 20 11 41 -23 60 -103 60 -69 0 -80 3 -170 50 -109 56 -156 64 -195 29
-21 -18 -21 -20 -4 -13 56 21 101 16 154 -16 79 -49 144 -70 214 -70 34 0 68
-4 75 -9 24 -14 9 -45 -31 -65 -33 -16 -46 -17 -98 -7 -33 5 -74 17 -91 26
-17 8 -33 13 -36 11 -20 -21 91 -59 173 -60 105 -1 193 58 256 169 34 60 54
73 69 46 14 -28 -38 -125 -102 -188 -29 -29 -79 -65 -111 -81 -32 -17 -54 -32
-49 -36 14 -9 105 41 156 85 25 22 60 62 77 90 33 50 49 61 49 34 0 -45 -63
-124 -153 -190 -21 -15 -36 -30 -33 -32 7 -8 49 18 104 64 30 26 52 39 52 31
0 -27 -69 -94 -127 -125 -80 -42 -152 -56 -264 -51 -114 5 -180 34 -259 111
-28 27 -54 46 -58 42 -12 -12 103 -111 165 -141 55 -27 65 -29 188 -29 112 1
138 4 184 23 106 45 196 131 190 184 -1 13 6 41 16 63 14 32 15 46 6 71 -6 17
-11 45 -11 62 0 36 -25 56 -53 41z"/>
<path d="M4362 1624 c-12 -8 -22 -24 -22 -35 0 -16 -5 -18 -25 -13 -46 11 -65
-18 -65 -99 0 -62 -2 -68 -17 -62 -57 23 -53 38 -53 -214 0 -172 3 -240 14
-264 13 -33 42 -60 126 -120 25 -18 52 -47 60 -64 17 -37 35 -44 24 -10 -13
42 -36 67 -103 111 -98 64 -99 68 -102 331 -1 121 1 219 5 218 3 -2 11 -3 16
-3 6 0 19 -9 30 -20 17 -17 20 -33 20 -100 0 -77 1 -80 28 -94 69 -36 108
-109 91 -168 -11 -41 -11 -48 1 -48 5 0 13 18 16 40 4 22 9 40 11 40 2 0 15
-12 28 -27 12 -16 55 -48 94 -73 l71 -45 0 -88 c0 -56 4 -86 10 -82 6 3 10 43
10 88 l0 82 58 37 c31 20 73 53 92 73 l34 36 11 -37 c6 -21 16 -39 24 -42 10
-3 11 0 2 16 -17 32 -13 94 9 129 10 18 37 44 60 59 l40 27 0 74 c0 69 2 77
29 104 16 16 35 29 41 29 8 0 11 -60 8 -222 -3 -256 -7 -269 -92 -325 -65 -43
-103 -80 -115 -114 -14 -40 2 -36 22 5 10 23 41 52 90 84 109 75 112 82 112
361 0 220 -1 226 -20 225 -11 -1 -28 -5 -37 -9 -16 -6 -18 0 -18 62 0 81 -19
110 -65 99 -20 -5 -25 -3 -25 12 0 11 -9 27 -21 37 -16 15 -25 17 -47 9 -18
-6 -36 -7 -54 0 -34 12 -68 -14 -68 -51 0 -20 -4 -22 -24 -17 -13 3 -33 1 -44
-5 -15 -8 -23 -8 -28 0 -3 6 -19 9 -34 7 -24 -4 -29 0 -34 24 -7 36 -48 58
-77 40 -14 -9 -25 -9 -39 -2 -25 13 -32 13 -58 -6z m56 -16 c8 -8 12 -59 12
-166 0 -99 3 -151 10 -147 6 4 10 69 10 161 0 134 2 155 16 161 9 3 24 2 33
-4 13 -8 17 -36 21 -154 6 -160 18 -168 22 -14 3 87 5 100 21 103 42 8 47 -12
47 -175 l0 -154 -26 20 c-18 14 -41 21 -70 21 -55 0 -110 -44 -120 -96 -6 -33
-7 -34 -20 -15 -8 11 -29 29 -48 41 -34 20 -35 23 -41 103 -13 180 -11 249 7
260 12 8 21 7 32 -2 13 -11 16 -37 16 -138 0 -80 4 -122 10 -118 6 4 10 68 10
160 0 153 2 162 36 164 5 1 15 -4 22 -11z m359 0 c4 -7 10 -83 13 -168 l6
-155 2 148 c1 82 7 157 12 168 11 20 45 26 55 8 4 -5 6 -77 6 -159 -1 -93 2
-151 9 -155 7 -4 10 33 10 112 0 127 10 158 46 151 17 -3 19 -12 17 -98 -1
-52 -4 -129 -8 -171 -7 -75 -8 -77 -50 -113 l-44 -36 -11 35 c-25 75 -104 110
-170 76 l-40 -21 0 155 c0 135 2 156 16 162 38 14 49 -9 55 -123 6 -127 10
-110 10 48 0 62 5 120 10 130 11 21 44 24 56 6z m-11 -373 c24 -10 39 -25 50
-51 29 -70 -8 -135 -120 -212 l-76 -53 -57 37 c-136 85 -178 157 -138 234 32
61 109 69 163 18 31 -30 34 -32 44 -15 11 21 66 57 86 57 7 0 28 -7 48 -15z"/>
<path d="M2952 1613 c-38 -15 -33 -83 7 -83 23 0 46 25 31 35 -5 3 -10 1 -10
-5 0 -6 -8 -10 -17 -8 -23 4 -23 28 -1 41 20 13 48 -6 48 -33 0 -28 -31 -47
-86 -53 -106 -12 -205 -84 -251 -183 -19 -43 -27 -51 -46 -47 -14 3 -29 -3
-42 -17 -25 -28 -11 -70 30 -88 25 -11 34 -24 47 -71 20 -67 78 -138 143 -176
136 -81 322 -35 413 100 18 27 36 62 39 77 4 21 11 28 29 28 29 0 64 33 64 59
0 27 -27 51 -56 51 -18 0 -25 7 -30 28 -12 49 -52 116 -91 154 -39 38 -114 77
-147 78 -13 0 -16 5 -11 18 18 41 16 60 -6 81 -23 21 -33 24 -57 14z m112
-143 c105 -40 175 -135 184 -251 6 -88 -16 -154 -73 -217 -176 -195 -505 -73
-505 187 0 77 13 123 49 176 29 44 105 100 155 114 54 16 133 12 190 -9z"/>
<path d="M855 1550 c-4 -16 -12 -30 -19 -30 -19 0 -25 -66 -16 -154 18 -154
68 -285 156 -403 35 -47 67 -97 70 -109 5 -20 -12 -125 -32 -191 -3 -13 -2
-23 4 -23 14 0 44 130 44 190 0 44 -5 57 -43 105 -72 91 -106 152 -138 250
-32 98 -59 268 -48 300 11 28 16 15 27 -71 13 -99 43 -201 81 -276 42 -84 54
-71 14 15 -44 92 -73 204 -81 319 -6 75 -5 90 7 86 8 -2 15 -20 17 -39 4 -61
23 -153 44 -219 23 -72 72 -175 88 -185 15 -9 12 1 -15 55 -54 106 -95 248
-95 330 0 64 14 41 45 -75 15 -55 35 -119 45 -142 25 -57 83 -140 88 -125 2 6
-8 26 -21 44 -25 32 -57 124 -57 160 0 33 16 19 38 -34 12 -29 49 -86 83 -127
33 -41 69 -92 80 -113 28 -56 41 -190 33 -345 -5 -92 -3 -133 4 -133 7 0 12
75 14 228 l3 229 29 44 c16 24 51 69 77 99 27 31 60 82 76 115 22 50 28 56 31
36 6 -35 -16 -105 -50 -157 -38 -61 -12 -51 30 10 29 44 53 111 97 269 8 31
20 57 26 57 13 0 3 -89 -22 -187 -14 -57 -50 -145 -97 -235 -2 -5 1 -8 6 -8
31 0 116 230 134 365 14 106 28 119 28 25 0 -103 -31 -241 -74 -335 -40 -86
-39 -85 -27 -85 13 0 67 126 90 208 11 40 23 104 27 142 10 109 28 87 21 -27
-8 -153 -73 -331 -156 -432 -64 -78 -71 -93 -70 -146 0 -60 30 -177 45 -182 7
-2 5 21 -7 64 -11 37 -19 90 -19 117 0 45 5 57 56 122 110 144 174 330 174
507 0 50 -3 60 -20 64 -14 4 -20 14 -20 34 0 24 -4 29 -25 29 -14 0 -25 -4
-25 -10 0 -5 -7 -10 -15 -10 -22 0 -41 -37 -60 -119 -13 -55 -20 -69 -27 -57
-17 30 -38 16 -67 -46 -15 -35 -56 -97 -89 -137 -34 -41 -69 -91 -78 -110
l-17 -35 -23 45 c-12 24 -46 71 -74 104 -29 33 -66 88 -82 123 -32 66 -49 82
-71 63 -11 -8 -17 4 -31 62 -19 82 -21 86 -58 110 -39 25 -55 21 -63 -13z"/>
</g>
</svg>
